<svg xmlns="http://www.w3.org/2000/svg" viewBox="0 0 350 70" fill="none">
  <defs>
    <linearGradient id="grad1" x1="0%" y1="0%" x2="100%" y2="0%">
      <stop offset="0%" stop-color="#6366f1"/>
      <stop offset="100%" stop-color="#ec4899"/>
    </linearGradient>
  </defs>
  
  <!-- Neural Network Icon -->
  <g id="icon">
    <!-- Nodes -->
    <circle cx="12" cy="20" r="3" fill="#6366f1"/>
    <circle cx="12" cy="35" r="3" fill="#8b5cf6"/>
    <circle cx="12" cy="50" r="3" fill="#6366f1"/>
    
    <circle cx="30" cy="15" r="4" fill="#8b5cf6"/>
    <circle cx="30" cy="35" r="4" fill="#ec4899"/>
    <circle cx="30" cy="55" r="4" fill="#8b5cf6"/>
    
    <circle cx="48" cy="25" r="3" fill="#06b6d4"/>
    <circle cx="48" cy="35" r="4" fill="#ec4899"/>
    <circle cx="48" cy="45" r="3" fill="#06b6d4"/>
    
    <!-- Connections -->
    <line x1="12" y1="20" x2="30" y2="15" stroke="#6366f1" stroke-width="1.5" opacity="0.4"/>
    <line x1="12" y1="20" x2="30" y2="35" stroke="#6366f1" stroke-width="1.5" opacity="0.3"/>
    <line x1="12" y1="35" x2="30" y2="15" stroke="#8b5cf6" stroke-width="1.5" opacity="0.3"/>
    <line x1="12" y1="35" x2="30" y2="35" stroke="#8b5cf6" stroke-width="2" opacity="0.5"/>
    <line x1="12" y1="35" x2="30" y2="55" stroke="#8b5cf6" stroke-width="1.5" opacity="0.3"/>
    <line x1="12" y1="50" x2="30" y2="35" stroke="#6366f1" stroke-width="1.5" opacity="0.3"/>
    <line x1="12" y1="50" x2="30" y2="55" stroke="#6366f1" stroke-width="1.5" opacity="0.4"/>
    
    <line x1="30" y1="15" x2="48" y2="25" stroke="#06b6d4" stroke-width="1.5" opacity="0.4"/>
    <line x1="30" y1="15" x2="48" y2="35" stroke="#ec4899" stroke-width="1.5" opacity="0.3"/>
    <line x1="30" y1="35" x2="48" y2="25" stroke="#ec4899" stroke-width="1.5" opacity="0.3"/>
    <line x1="30" y1="35" x2="48" y2="35" stroke="#ec4899" stroke-width="2" opacity="0.6"/>
    <line x1="30" y1="35" x2="48" y2="45" stroke="#ec4899" stroke-width="1.5" opacity="0.3"/>
    <line x1="30" y1="55" x2="48" y2="35" stroke="#06b6d4" stroke-width="1.5" opacity="0.3"/>
    <line x1="30" y1="55" x2="48" y2="45" stroke="#06b6d4" stroke-width="1.5" opacity="0.4"/>
  </g>
  
  <!-- Text -->
  <text x="65" y="40" font-family="Inter, system-ui, sans-serif" font-size="32" font-weight="800" fill="url(#grad1)">Neural Labs</text>
</svg>
